<mxfile host="Electron" agent="Mozilla/5.0 (Macintosh; Intel Mac OS X 10_15_7) AppleWebKit/537.36 (KHTML, like Gecko) draw.io/28.0.4 Chrome/138.0.7204.97 Electron/37.2.1 Safari/537.36" version="28.0.4">
  <diagram name="Page-1" id="El4p0Doz_mysJJMJSrG2">
    <mxGraphModel dx="1454" dy="977" grid="1" gridSize="10" guides="1" tooltips="1" connect="1" arrows="1" fold="1" page="0" pageScale="1" pageWidth="850" pageHeight="1100" math="0" shadow="0">
      <root>
        <mxCell id="0" />
        <mxCell id="1" parent="0" />
        <mxCell id="Z_7fUeES3kdiL7ging2v-1" value="Data Flow Diagram" style="text;html=1;align=center;verticalAlign=middle;whiteSpace=wrap;rounded=0;strokeColor=none;fontStyle=1;fontSize=24;" parent="1" vertex="1">
          <mxGeometry x="85" y="60" width="240" height="30" as="geometry" />
        </mxCell>
        <mxCell id="Z_7fUeES3kdiL7ging2v-2" value="" style="rounded=0;whiteSpace=wrap;html=1;fillColor=none;dashed=1;" parent="1" vertex="1">
          <mxGeometry x="110" y="180" width="190" height="470" as="geometry" />
        </mxCell>
        <mxCell id="Z_7fUeES3kdiL7ging2v-3" value="&lt;font style=&quot;font-size: 24px;&quot;&gt;Sources&lt;/font&gt;" style="rounded=1;whiteSpace=wrap;html=1;strokeColor=none;" parent="1" vertex="1">
          <mxGeometry x="145" y="150" width="120" height="60" as="geometry" />
        </mxCell>
        <mxCell id="Z_7fUeES3kdiL7ging2v-16" style="edgeStyle=orthogonalEdgeStyle;rounded=0;orthogonalLoop=1;jettySize=auto;html=1;entryX=0;entryY=0.5;entryDx=0;entryDy=0;" parent="1" source="Z_7fUeES3kdiL7ging2v-4" target="Z_7fUeES3kdiL7ging2v-11" edge="1">
          <mxGeometry relative="1" as="geometry" />
        </mxCell>
        <mxCell id="Z_7fUeES3kdiL7ging2v-17" style="edgeStyle=orthogonalEdgeStyle;rounded=0;orthogonalLoop=1;jettySize=auto;html=1;entryX=0;entryY=0.5;entryDx=0;entryDy=0;" parent="1" source="Z_7fUeES3kdiL7ging2v-4" target="Z_7fUeES3kdiL7ging2v-13" edge="1">
          <mxGeometry relative="1" as="geometry" />
        </mxCell>
        <mxCell id="Z_7fUeES3kdiL7ging2v-18" style="edgeStyle=orthogonalEdgeStyle;rounded=0;orthogonalLoop=1;jettySize=auto;html=1;entryX=0;entryY=0.5;entryDx=0;entryDy=0;" parent="1" source="Z_7fUeES3kdiL7ging2v-4" target="Z_7fUeES3kdiL7ging2v-12" edge="1">
          <mxGeometry relative="1" as="geometry" />
        </mxCell>
        <mxCell id="Z_7fUeES3kdiL7ging2v-4" value="&lt;font style=&quot;font-size: 18px;&quot;&gt;&lt;b style=&quot;&quot;&gt;CRM&lt;/b&gt;&lt;/font&gt;" style="image;aspect=fixed;html=1;points=[];align=center;fontSize=12;image=img/lib/azure2/general/Folder_Blank.svg;" parent="1" vertex="1">
          <mxGeometry x="170.5" y="287" width="69" height="56.00000000000001" as="geometry" />
        </mxCell>
        <mxCell id="Z_7fUeES3kdiL7ging2v-22" style="edgeStyle=orthogonalEdgeStyle;rounded=0;orthogonalLoop=1;jettySize=auto;html=1;entryX=0;entryY=0.5;entryDx=0;entryDy=0;" parent="1" source="Z_7fUeES3kdiL7ging2v-5" target="Z_7fUeES3kdiL7ging2v-20" edge="1">
          <mxGeometry relative="1" as="geometry" />
        </mxCell>
        <mxCell id="Z_7fUeES3kdiL7ging2v-23" style="edgeStyle=orthogonalEdgeStyle;rounded=0;orthogonalLoop=1;jettySize=auto;html=1;entryX=0;entryY=0.5;entryDx=0;entryDy=0;" parent="1" source="Z_7fUeES3kdiL7ging2v-5" target="Z_7fUeES3kdiL7ging2v-19" edge="1">
          <mxGeometry relative="1" as="geometry" />
        </mxCell>
        <mxCell id="Z_7fUeES3kdiL7ging2v-24" style="edgeStyle=orthogonalEdgeStyle;rounded=0;orthogonalLoop=1;jettySize=auto;html=1;entryX=0;entryY=0.5;entryDx=0;entryDy=0;" parent="1" source="Z_7fUeES3kdiL7ging2v-5" target="Z_7fUeES3kdiL7ging2v-21" edge="1">
          <mxGeometry relative="1" as="geometry" />
        </mxCell>
        <mxCell id="Z_7fUeES3kdiL7ging2v-5" value="&lt;font style=&quot;font-size: 18px;&quot;&gt;&lt;b style=&quot;&quot;&gt;ERP&lt;/b&gt;&lt;/font&gt;" style="image;aspect=fixed;html=1;points=[];align=center;fontSize=12;image=img/lib/azure2/general/Folder_Blank.svg;" parent="1" vertex="1">
          <mxGeometry x="170.5" y="480" width="69" height="56.00000000000001" as="geometry" />
        </mxCell>
        <mxCell id="Z_7fUeES3kdiL7ging2v-8" value="" style="rounded=1;whiteSpace=wrap;html=1;fillColor=#ffe6cc;strokeColor=#d79b00;fillStyle=hatch;" parent="1" vertex="1">
          <mxGeometry x="386" y="230" width="224" height="390" as="geometry" />
        </mxCell>
        <mxCell id="Z_7fUeES3kdiL7ging2v-9" value="&lt;font style=&quot;font-size: 19px;&quot;&gt;&lt;b style=&quot;&quot;&gt;Bronze Layer&lt;/b&gt;&lt;/font&gt;" style="rounded=1;whiteSpace=wrap;html=1;strokeColor=#d79b00;fillColor=#ffe6cc;" parent="1" vertex="1">
          <mxGeometry x="398" y="180" width="200" height="40" as="geometry" />
        </mxCell>
        <mxCell id="7Dy7T9uB9Mvpd1Q8lHmQ-9" style="edgeStyle=orthogonalEdgeStyle;rounded=0;orthogonalLoop=1;jettySize=auto;html=1;exitX=1;exitY=0.5;exitDx=0;exitDy=0;entryX=0;entryY=0.5;entryDx=0;entryDy=0;" parent="1" source="Z_7fUeES3kdiL7ging2v-11" target="7Dy7T9uB9Mvpd1Q8lHmQ-3" edge="1">
          <mxGeometry relative="1" as="geometry" />
        </mxCell>
        <mxCell id="Z_7fUeES3kdiL7ging2v-11" value="&lt;font style=&quot;font-size: 15px;&quot;&gt;bronze_crm_cust_info&lt;/font&gt;" style="rounded=1;whiteSpace=wrap;html=1;strokeColor=#d79b00;fillColor=#ffe6cc;" parent="1" vertex="1">
          <mxGeometry x="408" y="250" width="180" height="30" as="geometry" />
        </mxCell>
        <mxCell id="7Dy7T9uB9Mvpd1Q8lHmQ-10" style="edgeStyle=orthogonalEdgeStyle;rounded=0;orthogonalLoop=1;jettySize=auto;html=1;exitX=1;exitY=0.5;exitDx=0;exitDy=0;" parent="1" source="Z_7fUeES3kdiL7ging2v-12" target="7Dy7T9uB9Mvpd1Q8lHmQ-4" edge="1">
          <mxGeometry relative="1" as="geometry" />
        </mxCell>
        <mxCell id="Z_7fUeES3kdiL7ging2v-12" value="&lt;font style=&quot;font-size: 15px;&quot;&gt;bronze_crm_prd_info&lt;/font&gt;" style="rounded=1;whiteSpace=wrap;html=1;strokeColor=#d79b00;fillColor=#ffe6cc;" parent="1" vertex="1">
          <mxGeometry x="408" y="300" width="180" height="30" as="geometry" />
        </mxCell>
        <mxCell id="7Dy7T9uB9Mvpd1Q8lHmQ-11" style="edgeStyle=orthogonalEdgeStyle;rounded=0;orthogonalLoop=1;jettySize=auto;html=1;exitX=1;exitY=0.5;exitDx=0;exitDy=0;" parent="1" source="Z_7fUeES3kdiL7ging2v-13" target="7Dy7T9uB9Mvpd1Q8lHmQ-5" edge="1">
          <mxGeometry relative="1" as="geometry" />
        </mxCell>
        <mxCell id="Z_7fUeES3kdiL7ging2v-13" value="&lt;font style=&quot;font-size: 14px;&quot;&gt;bronze_crm_sales_details&lt;/font&gt;" style="rounded=1;whiteSpace=wrap;html=1;strokeColor=#d79b00;fillColor=#ffe6cc;" parent="1" vertex="1">
          <mxGeometry x="408" y="350" width="180" height="30" as="geometry" />
        </mxCell>
        <mxCell id="7Dy7T9uB9Mvpd1Q8lHmQ-12" style="edgeStyle=orthogonalEdgeStyle;rounded=0;orthogonalLoop=1;jettySize=auto;html=1;entryX=0;entryY=0.5;entryDx=0;entryDy=0;" parent="1" source="Z_7fUeES3kdiL7ging2v-19" target="7Dy7T9uB9Mvpd1Q8lHmQ-6" edge="1">
          <mxGeometry relative="1" as="geometry" />
        </mxCell>
        <mxCell id="Z_7fUeES3kdiL7ging2v-19" value="&lt;font style=&quot;font-size: 15px;&quot;&gt;bronze_erp_cust_az12&lt;/font&gt;" style="rounded=1;whiteSpace=wrap;html=1;strokeColor=#d79b00;fillColor=#ffe6cc;" parent="1" vertex="1">
          <mxGeometry x="408" y="443" width="180" height="30" as="geometry" />
        </mxCell>
        <mxCell id="7Dy7T9uB9Mvpd1Q8lHmQ-13" style="edgeStyle=orthogonalEdgeStyle;rounded=0;orthogonalLoop=1;jettySize=auto;html=1;exitX=1;exitY=0.5;exitDx=0;exitDy=0;" parent="1" source="Z_7fUeES3kdiL7ging2v-20" target="7Dy7T9uB9Mvpd1Q8lHmQ-7" edge="1">
          <mxGeometry relative="1" as="geometry" />
        </mxCell>
        <mxCell id="Z_7fUeES3kdiL7ging2v-20" value="&lt;font style=&quot;font-size: 15px;&quot;&gt;bronze_erp_loc_a101&lt;/font&gt;" style="rounded=1;whiteSpace=wrap;html=1;strokeColor=#d79b00;fillColor=#ffe6cc;" parent="1" vertex="1">
          <mxGeometry x="408" y="493" width="180" height="30" as="geometry" />
        </mxCell>
        <mxCell id="7Dy7T9uB9Mvpd1Q8lHmQ-14" style="edgeStyle=orthogonalEdgeStyle;rounded=0;orthogonalLoop=1;jettySize=auto;html=1;exitX=1;exitY=0.5;exitDx=0;exitDy=0;entryX=0;entryY=0.5;entryDx=0;entryDy=0;" parent="1" source="Z_7fUeES3kdiL7ging2v-21" target="7Dy7T9uB9Mvpd1Q8lHmQ-8" edge="1">
          <mxGeometry relative="1" as="geometry" />
        </mxCell>
        <mxCell id="Z_7fUeES3kdiL7ging2v-21" value="&lt;font style=&quot;font-size: 14px;&quot;&gt;bronze_erp_px_cat_g1v2&lt;/font&gt;" style="rounded=1;whiteSpace=wrap;html=1;strokeColor=#d79b00;fillColor=#ffe6cc;" parent="1" vertex="1">
          <mxGeometry x="408" y="543" width="180" height="30" as="geometry" />
        </mxCell>
        <mxCell id="7Dy7T9uB9Mvpd1Q8lHmQ-1" value="" style="rounded=1;whiteSpace=wrap;html=1;fillColor=#f5f5f5;strokeColor=#666666;fillStyle=hatch;fontColor=#333333;" parent="1" vertex="1">
          <mxGeometry x="680" y="230" width="224" height="390" as="geometry" />
        </mxCell>
        <mxCell id="7Dy7T9uB9Mvpd1Q8lHmQ-2" value="&lt;font style=&quot;font-size: 19px;&quot;&gt;&lt;b style=&quot;&quot;&gt;Silver Layer&lt;/b&gt;&lt;/font&gt;" style="rounded=1;whiteSpace=wrap;html=1;strokeColor=#666666;fillColor=#f5f5f5;fontColor=#333333;" parent="1" vertex="1">
          <mxGeometry x="692" y="180" width="200" height="40" as="geometry" />
        </mxCell>
        <mxCell id="wDFz6IPGxjj2amuJrr6b-9" style="edgeStyle=orthogonalEdgeStyle;rounded=0;orthogonalLoop=1;jettySize=auto;html=1;exitX=1;exitY=0.5;exitDx=0;exitDy=0;" edge="1" parent="1" source="7Dy7T9uB9Mvpd1Q8lHmQ-3" target="wDFz6IPGxjj2amuJrr6b-3">
          <mxGeometry relative="1" as="geometry" />
        </mxCell>
        <mxCell id="7Dy7T9uB9Mvpd1Q8lHmQ-3" value="&lt;font style=&quot;font-size: 15px;&quot;&gt;silver_crm_cust_info&lt;/font&gt;" style="rounded=1;whiteSpace=wrap;html=1;strokeColor=#666666;fillColor=#f5f5f5;fontColor=#333333;" parent="1" vertex="1">
          <mxGeometry x="702" y="250" width="180" height="30" as="geometry" />
        </mxCell>
        <mxCell id="7Dy7T9uB9Mvpd1Q8lHmQ-4" value="&lt;font style=&quot;font-size: 15px;&quot;&gt;silver_crm_prd_info&lt;/font&gt;" style="rounded=1;whiteSpace=wrap;html=1;strokeColor=#666666;fillColor=#f5f5f5;fontColor=#333333;" parent="1" vertex="1">
          <mxGeometry x="702" y="300" width="180" height="30" as="geometry" />
        </mxCell>
        <mxCell id="7Dy7T9uB9Mvpd1Q8lHmQ-5" value="&lt;font style=&quot;font-size: 14px;&quot;&gt;silver_crm_sales_details&lt;/font&gt;" style="rounded=1;whiteSpace=wrap;html=1;strokeColor=#666666;fillColor=#f5f5f5;fontColor=#333333;" parent="1" vertex="1">
          <mxGeometry x="702" y="350" width="180" height="30" as="geometry" />
        </mxCell>
        <mxCell id="7Dy7T9uB9Mvpd1Q8lHmQ-6" value="&lt;font style=&quot;font-size: 15px;&quot;&gt;silver_erp_cust_az12&lt;/font&gt;" style="rounded=1;whiteSpace=wrap;html=1;strokeColor=#666666;fillColor=#f5f5f5;fontColor=#333333;" parent="1" vertex="1">
          <mxGeometry x="702" y="443" width="180" height="30" as="geometry" />
        </mxCell>
        <mxCell id="7Dy7T9uB9Mvpd1Q8lHmQ-7" value="&lt;font style=&quot;font-size: 15px;&quot;&gt;silver_erp_loc_a101&lt;/font&gt;" style="rounded=1;whiteSpace=wrap;html=1;strokeColor=#666666;fillColor=#f5f5f5;fontColor=#333333;" parent="1" vertex="1">
          <mxGeometry x="702" y="493" width="180" height="30" as="geometry" />
        </mxCell>
        <mxCell id="7Dy7T9uB9Mvpd1Q8lHmQ-8" value="&lt;font style=&quot;font-size: 14px;&quot;&gt;silver_erp_px_cat_g1v2&lt;/font&gt;" style="rounded=1;whiteSpace=wrap;html=1;strokeColor=#666666;fillColor=#f5f5f5;fontColor=#333333;" parent="1" vertex="1">
          <mxGeometry x="702" y="543" width="180" height="30" as="geometry" />
        </mxCell>
        <mxCell id="wDFz6IPGxjj2amuJrr6b-1" value="" style="rounded=1;whiteSpace=wrap;html=1;fillColor=#fff2cc;strokeColor=#d6b656;fillStyle=hatch;" vertex="1" parent="1">
          <mxGeometry x="990" y="230" width="224" height="390" as="geometry" />
        </mxCell>
        <mxCell id="wDFz6IPGxjj2amuJrr6b-2" value="&lt;font style=&quot;font-size: 19px;&quot;&gt;&lt;b style=&quot;&quot;&gt;Gold Layer&lt;/b&gt;&lt;/font&gt;" style="rounded=1;whiteSpace=wrap;html=1;strokeColor=#d6b656;fillColor=#fff2cc;" vertex="1" parent="1">
          <mxGeometry x="1002" y="180" width="200" height="40" as="geometry" />
        </mxCell>
        <mxCell id="wDFz6IPGxjj2amuJrr6b-3" value="&lt;font style=&quot;font-size: 15px;&quot;&gt;gold_fact_sales&lt;/font&gt;" style="rounded=1;whiteSpace=wrap;html=1;strokeColor=#d6b656;fillColor=#fff2cc;" vertex="1" parent="1">
          <mxGeometry x="1012" y="250" width="180" height="30" as="geometry" />
        </mxCell>
        <mxCell id="wDFz6IPGxjj2amuJrr6b-4" value="&lt;font style=&quot;font-size: 15px;&quot;&gt;gold_dim_customers&lt;/font&gt;" style="rounded=1;whiteSpace=wrap;html=1;strokeColor=#d6b656;fillColor=#fff2cc;" vertex="1" parent="1">
          <mxGeometry x="1012" y="390" width="180" height="30" as="geometry" />
        </mxCell>
        <mxCell id="wDFz6IPGxjj2amuJrr6b-5" value="&lt;font style=&quot;font-size: 14px;&quot;&gt;&lt;span style=&quot;font-size: 15px;&quot;&gt;gold_&lt;/span&gt;dim_products&lt;/font&gt;" style="rounded=1;whiteSpace=wrap;html=1;strokeColor=#d6b656;fillColor=#fff2cc;" vertex="1" parent="1">
          <mxGeometry x="1012" y="543" width="180" height="30" as="geometry" />
        </mxCell>
        <mxCell id="wDFz6IPGxjj2amuJrr6b-12" value="" style="endArrow=classic;html=1;rounded=0;exitX=1;exitY=0.5;exitDx=0;exitDy=0;entryX=0;entryY=0;entryDx=0;entryDy=0;jumpStyle=gap;" edge="1" parent="1" source="7Dy7T9uB9Mvpd1Q8lHmQ-4" target="wDFz6IPGxjj2amuJrr6b-4">
          <mxGeometry width="50" height="50" relative="1" as="geometry">
            <mxPoint x="940" y="410" as="sourcePoint" />
            <mxPoint x="990" y="360" as="targetPoint" />
          </mxGeometry>
        </mxCell>
        <mxCell id="wDFz6IPGxjj2amuJrr6b-13" value="" style="endArrow=classic;html=1;rounded=0;exitX=1;exitY=0.5;exitDx=0;exitDy=0;entryX=0;entryY=0.5;entryDx=0;entryDy=0;jumpStyle=gap;" edge="1" parent="1" source="7Dy7T9uB9Mvpd1Q8lHmQ-6" target="wDFz6IPGxjj2amuJrr6b-4">
          <mxGeometry width="50" height="50" relative="1" as="geometry">
            <mxPoint x="900" y="483" as="sourcePoint" />
            <mxPoint x="1030" y="573" as="targetPoint" />
          </mxGeometry>
        </mxCell>
        <mxCell id="wDFz6IPGxjj2amuJrr6b-14" value="" style="endArrow=classic;html=1;rounded=0;exitX=1;exitY=0.5;exitDx=0;exitDy=0;entryX=0;entryY=1;entryDx=0;entryDy=0;jumpStyle=gap;" edge="1" parent="1" source="7Dy7T9uB9Mvpd1Q8lHmQ-7" target="wDFz6IPGxjj2amuJrr6b-4">
          <mxGeometry width="50" height="50" relative="1" as="geometry">
            <mxPoint x="920" y="513" as="sourcePoint" />
            <mxPoint x="1050" y="460" as="targetPoint" />
          </mxGeometry>
        </mxCell>
        <mxCell id="wDFz6IPGxjj2amuJrr6b-16" value="" style="endArrow=classic;html=1;rounded=0;exitX=1;exitY=0.5;exitDx=0;exitDy=0;entryX=0;entryY=0.25;entryDx=0;entryDy=0;jumpStyle=gap;" edge="1" parent="1" source="7Dy7T9uB9Mvpd1Q8lHmQ-5" target="wDFz6IPGxjj2amuJrr6b-5">
          <mxGeometry width="50" height="50" relative="1" as="geometry">
            <mxPoint x="892" y="372.5" as="sourcePoint" />
            <mxPoint x="1022" y="457.5" as="targetPoint" />
          </mxGeometry>
        </mxCell>
        <mxCell id="wDFz6IPGxjj2amuJrr6b-17" value="" style="endArrow=classic;html=1;rounded=0;exitX=1;exitY=0.5;exitDx=0;exitDy=0;entryX=0;entryY=0.75;entryDx=0;entryDy=0;jumpStyle=gap;" edge="1" parent="1" source="7Dy7T9uB9Mvpd1Q8lHmQ-8" target="wDFz6IPGxjj2amuJrr6b-5">
          <mxGeometry width="50" height="50" relative="1" as="geometry">
            <mxPoint x="920" y="560" as="sourcePoint" />
            <mxPoint x="1050" y="645" as="targetPoint" />
          </mxGeometry>
        </mxCell>
      </root>
    </mxGraphModel>
  </diagram>
</mxfile>
